# picocad model
mtllib crystal_crist0.mtl
o crystal_crist0
v -0.3 -0.05 1.05
v 0.3 -0.05 1.05
v 0.3 -0.05 0.45
v -0.3 -0.05 0.45
v 0 1.6 0.75
v -0.5 0 0.5
v 0.5 0 0.5
v 0.5 0 -0.5
v -0.5 0 -0.5
v 0 2.75 -0
v -1.05 -0.05 0.3
v -0.45 -0.05 0.3
v -0.45 -0.05 -0.3
v -1.05 -0.05 -0.3
v -0.75 0.5 -0
v -0.3 -0.05 -0.45
v 0.3 -0.05 -0.45
v 0.3 -0.05 -1.05
v -0.3 -0.05 -1.05
v 0 1.6 -0.75
v 0.45 -0.05 0.3
v 1.05 -0.05 0.3
v 1.05 -0.05 -0.3
v 0.45 -0.05 -0.3
v 0.75 0.75 -0

vt 0.25 1
vt 0.25 0.875
vt 0.125 0.875
vt 0.125 1
vt 0.1875 1.015625
vt 0.25 0.875
vt 0.125 0.875
vt 0.1875 1.015625
vt 0.25 0.875
vt 0.125 0.875
vt 0.1875 1.015625
vt 0.25 0.875
vt 0.125 0.875
vt 0.1875 1.015625
vt 0.25 0.875
vt 0.125 0.875
vt 0.25 1
vt 0.25 0.875
vt 0.125 0.875
vt 0.125 1
vt 0.1875 1.015625
vt 0.25 0.875
vt 0.125 0.875
vt 0.1875 1.015625
vt 0.25 0.875
vt 0.125 0.875
vt 0.1875 1.015625
vt 0.25 0.875
vt 0.125 0.875
vt 0.1875 1.015625
vt 0.25 0.875
vt 0.125 0.875
vt 0.25 1
vt 0.25 0.875
vt 0.125 0.875
vt 0.125 1
vt 0.1875 1.015625
vt 0.25 0.875
vt 0.125 0.875
vt 0.1875 1.015625
vt 0.25 0.875
vt 0.125 0.875
vt 0.1875 1.015625
vt 0.25 0.875
vt 0.125 0.875
vt 0.1875 1.015625
vt 0.25 0.875
vt 0.125 0.875
vt 0.25 1
vt 0.25 0.875
vt 0.125 0.875
vt 0.125 1
vt 0.1875 1.015625
vt 0.25 0.875
vt 0.125 0.875
vt 0.1875 1.015625
vt 0.25 0.875
vt 0.125 0.875
vt 0.1875 1.015625
vt 0.25 0.875
vt 0.125 0.875
vt 0.1875 1.015625
vt 0.25 0.875
vt 0.125 0.875
vt 0.25 1
vt 0.25 0.875
vt 0.125 0.875
vt 0.125 1
vt 0.1875 1.015625
vt 0.25 0.875
vt 0.125 0.875
vt 0.1875 1.015625
vt 0.25 0.875
vt 0.125 0.875
vt 0.1875 1.015625
vt 0.25 0.875
vt 0.125 0.875
vt 0.1875 1.015625
vt 0.25 0.875
vt 0.125 0.875

usemtl crystal_crist0.mtl
s off
f 4/4/1 3/3/1 2/2/1 1/1/1 
f 1/7/2 2/6/2 5/5/2 
f 2/10/3 3/9/3 5/8/3 
f 3/13/4 4/12/4 5/11/4 
f 4/16/5 1/15/5 5/14/5 
f 9/20/6 8/19/6 7/18/6 6/17/6 
f 6/23/7 7/22/7 10/21/7 
f 7/26/8 8/25/8 10/24/8 
f 8/29/9 9/28/9 10/27/9 
f 9/32/10 6/31/10 10/30/10 
f 14/36/11 13/35/11 12/34/11 11/33/11 
f 11/39/12 12/38/12 15/37/12 
f 12/42/13 13/41/13 15/40/13 
f 13/45/14 14/44/14 15/43/14 
f 14/48/15 11/47/15 15/46/15 
f 19/52/16 18/51/16 17/50/16 16/49/16 
f 16/55/17 17/54/17 20/53/17 
f 17/58/18 18/57/18 20/56/18 
f 18/61/19 19/60/19 20/59/19 
f 19/64/20 16/63/20 20/62/20 
f 24/68/21 23/67/21 22/66/21 21/65/21 
f 21/71/22 22/70/22 25/69/22 
f 22/74/23 23/73/23 25/72/23 
f 23/77/24 24/76/24 25/75/24 
f 24/80/25 21/79/25 25/78/25 

